<?xml version="1.0" encoding="UTF-8" standalone="no"?>
<!DOCTYPE svg PUBLIC "-//W3C//DTD SVG 1.1//EN"
 "http://www.w3.org/Graphics/SVG/1.1/DTD/svg11.dtd">
<!-- Generated by graphviz version 2.40.1 (20161225.0304)
 -->
<!-- Title: %3 Pages: 1 -->
<svg width="866pt" height="260pt"
 viewBox="0.00 0.00 865.86 260.00" xmlns="http://www.w3.org/2000/svg" xmlns:xlink="http://www.w3.org/1999/xlink">
<g id="graph0" class="graph" transform="scale(1 1) rotate(0) translate(4 256)">
<title>%3</title>
<polygon fill="#ffffff" stroke="transparent" points="-4,4 -4,-256 861.8627,-256 861.8627,4 -4,4"/>
<!-- [root] azurerm_network_security_group.nsg (expand) -->
<g id="node1" class="node">
<title>[root] azurerm_network_security_group.nsg (expand)</title>
<polygon fill="none" stroke="#000000" points="304.2843,-108 81.2843,-108 81.2843,-72 304.2843,-72 304.2843,-108"/>
<text text-anchor="middle" x="192.7843" y="-86.3" font-family="Times,serif" font-size="14.00" fill="#000000">azurerm_network_security_group.nsg</text>
</g>
<!-- [root] provider[&quot;registry.terraform.io/hashicorp/azurerm&quot;] -->
<g id="node4" class="node">
<title>[root] provider[&quot;registry.terraform.io/hashicorp/azurerm&quot;]</title>
<polygon fill="none" stroke="#000000" points="405.7843,-36 131.1282,-18 405.7843,0 680.4405,-18 405.7843,-36"/>
<text text-anchor="middle" x="405.7843" y="-14.3" font-family="Times,serif" font-size="14.00" fill="#000000">provider[&quot;registry.terraform.io/hashicorp/azurerm&quot;]</text>
</g>
<!-- [root] azurerm_network_security_group.nsg (expand)&#45;&gt;[root] provider[&quot;registry.terraform.io/hashicorp/azurerm&quot;] -->
<g id="edge1" class="edge">
<title>[root] azurerm_network_security_group.nsg (expand)&#45;&gt;[root] provider[&quot;registry.terraform.io/hashicorp/azurerm&quot;]</title>
<path fill="none" stroke="#000000" d="M246.2583,-71.9243C278.3101,-61.0899 318.9648,-47.3474 351.2106,-36.4475"/>
<polygon fill="#000000" stroke="#000000" points="352.5765,-39.6804 360.9291,-33.1623 350.3349,-33.049 352.5765,-39.6804"/>
</g>
<!-- [root] azurerm_resource_group.rg (expand) -->
<g id="node2" class="node">
<title>[root] azurerm_resource_group.rg (expand)</title>
<polygon fill="none" stroke="#000000" points="489.2843,-108 322.2843,-108 322.2843,-72 489.2843,-72 489.2843,-108"/>
<text text-anchor="middle" x="405.7843" y="-86.3" font-family="Times,serif" font-size="14.00" fill="#000000">azurerm_resource_group.rg</text>
</g>
<!-- [root] azurerm_resource_group.rg (expand)&#45;&gt;[root] provider[&quot;registry.terraform.io/hashicorp/azurerm&quot;] -->
<g id="edge2" class="edge">
<title>[root] azurerm_resource_group.rg (expand)&#45;&gt;[root] provider[&quot;registry.terraform.io/hashicorp/azurerm&quot;]</title>
<path fill="none" stroke="#000000" d="M405.7843,-71.8314C405.7843,-64.131 405.7843,-54.9743 405.7843,-46.4166"/>
<polygon fill="#000000" stroke="#000000" points="409.2844,-46.4132 405.7843,-36.4133 402.2844,-46.4133 409.2844,-46.4132"/>
</g>
<!-- [root] azurerm_virtual_network.vnet (expand) -->
<g id="node3" class="node">
<title>[root] azurerm_virtual_network.vnet (expand)</title>
<polygon fill="none" stroke="#000000" points="689.7843,-108 507.7843,-108 507.7843,-72 689.7843,-72 689.7843,-108"/>
<text text-anchor="middle" x="598.7843" y="-86.3" font-family="Times,serif" font-size="14.00" fill="#000000">azurerm_virtual_network.vnet</text>
</g>
<!-- [root] azurerm_virtual_network.vnet (expand)&#45;&gt;[root] provider[&quot;registry.terraform.io/hashicorp/azurerm&quot;] -->
<g id="edge3" class="edge">
<title>[root] azurerm_virtual_network.vnet (expand)&#45;&gt;[root] provider[&quot;registry.terraform.io/hashicorp/azurerm&quot;]</title>
<path fill="none" stroke="#000000" d="M550.0823,-71.8314C521.4888,-61.1644 485.405,-47.7031 456.4743,-36.9102"/>
<polygon fill="#000000" stroke="#000000" points="457.551,-33.5763 446.9583,-33.3603 455.1042,-40.1348 457.551,-33.5763"/>
</g>
<!-- [root] meta.count&#45;boundary (EachMode fixup) -->
<g id="node5" class="node">
<title>[root] meta.count&#45;boundary (EachMode fixup)</title>
<ellipse fill="none" stroke="#000000" cx="176.7843" cy="-162" rx="176.5689" ry="18"/>
<text text-anchor="middle" x="176.7843" y="-158.3" font-family="Times,serif" font-size="14.00" fill="#000000">[root] meta.count&#45;boundary (EachMode fixup)</text>
</g>
<!-- [root] meta.count&#45;boundary (EachMode fixup)&#45;&gt;[root] azurerm_network_security_group.nsg (expand) -->
<g id="edge4" class="edge">
<title>[root] meta.count&#45;boundary (EachMode fixup)&#45;&gt;[root] azurerm_network_security_group.nsg (expand)</title>
<path fill="none" stroke="#000000" d="M180.8218,-143.8314C182.533,-136.131 184.5678,-126.9743 186.4695,-118.4166"/>
<polygon fill="#000000" stroke="#000000" points="189.9398,-118.9344 188.6925,-108.4133 183.1064,-117.4159 189.9398,-118.9344"/>
</g>
<!-- [root] meta.count&#45;boundary (EachMode fixup)&#45;&gt;[root] azurerm_resource_group.rg (expand) -->
<g id="edge5" class="edge">
<title>[root] meta.count&#45;boundary (EachMode fixup)&#45;&gt;[root] azurerm_resource_group.rg (expand)</title>
<path fill="none" stroke="#000000" d="M231.3446,-144.8457C263.4931,-134.7379 304.4212,-121.8696 338.5525,-111.1384"/>
<polygon fill="#000000" stroke="#000000" points="339.9565,-114.3659 348.4463,-108.0277 337.8569,-107.6882 339.9565,-114.3659"/>
</g>
<!-- [root] meta.count&#45;boundary (EachMode fixup)&#45;&gt;[root] azurerm_virtual_network.vnet (expand) -->
<g id="edge6" class="edge">
<title>[root] meta.count&#45;boundary (EachMode fixup)&#45;&gt;[root] azurerm_virtual_network.vnet (expand)</title>
<path fill="none" stroke="#000000" d="M269.5353,-146.6416C333.6662,-135.9623 420.9417,-121.3104 497.7843,-108 497.8858,-107.9824 497.9873,-107.9648 498.0889,-107.9472"/>
<polygon fill="#000000" stroke="#000000" points="498.4217,-111.442 507.6736,-106.2795 497.2216,-104.5456 498.4217,-111.442"/>
</g>
<!-- [root] provider[&quot;registry.terraform.io/hashicorp/azurerm&quot;] (close) -->
<g id="node6" class="node">
<title>[root] provider[&quot;registry.terraform.io/hashicorp/azurerm&quot;] (close)</title>
<ellipse fill="none" stroke="#000000" cx="614.7843" cy="-162" rx="243.1569" ry="18"/>
<text text-anchor="middle" x="614.7843" y="-158.3" font-family="Times,serif" font-size="14.00" fill="#000000">[root] provider[&quot;registry.terraform.io/hashicorp/azurerm&quot;] (close)</text>
</g>
<!-- [root] provider[&quot;registry.terraform.io/hashicorp/azurerm&quot;] (close)&#45;&gt;[root] azurerm_network_security_group.nsg (expand) -->
<g id="edge7" class="edge">
<title>[root] provider[&quot;registry.terraform.io/hashicorp/azurerm&quot;] (close)&#45;&gt;[root] azurerm_network_security_group.nsg (expand)</title>
<path fill="none" stroke="#000000" d="M517.969,-145.4817C455.5916,-134.8392 374.1619,-120.9459 308.3934,-109.7248"/>
<polygon fill="#000000" stroke="#000000" points="308.8396,-106.2504 298.3933,-108.0186 307.6622,-113.1507 308.8396,-106.2504"/>
</g>
<!-- [root] provider[&quot;registry.terraform.io/hashicorp/azurerm&quot;] (close)&#45;&gt;[root] azurerm_resource_group.rg (expand) -->
<g id="edge8" class="edge">
<title>[root] provider[&quot;registry.terraform.io/hashicorp/azurerm&quot;] (close)&#45;&gt;[root] azurerm_resource_group.rg (expand)</title>
<path fill="none" stroke="#000000" d="M563.6572,-144.3868C534.7599,-134.4318 498.4193,-121.9125 467.8911,-111.3956"/>
<polygon fill="#000000" stroke="#000000" points="468.7951,-108.0052 458.2004,-108.0572 466.5151,-114.6235 468.7951,-108.0052"/>
</g>
<!-- [root] provider[&quot;registry.terraform.io/hashicorp/azurerm&quot;] (close)&#45;&gt;[root] azurerm_virtual_network.vnet (expand) -->
<g id="edge9" class="edge">
<title>[root] provider[&quot;registry.terraform.io/hashicorp/azurerm&quot;] (close)&#45;&gt;[root] azurerm_virtual_network.vnet (expand)</title>
<path fill="none" stroke="#000000" d="M610.7468,-143.8314C609.0356,-136.131 607.0008,-126.9743 605.0991,-118.4166"/>
<polygon fill="#000000" stroke="#000000" points="608.4622,-117.4159 602.8762,-108.4133 601.6289,-118.9344 608.4622,-117.4159"/>
</g>
<!-- [root] root -->
<g id="node7" class="node">
<title>[root] root</title>
<ellipse fill="none" stroke="#000000" cx="395.7843" cy="-234" rx="47.3916" ry="18"/>
<text text-anchor="middle" x="395.7843" y="-230.3" font-family="Times,serif" font-size="14.00" fill="#000000">[root] root</text>
</g>
<!-- [root] root&#45;&gt;[root] meta.count&#45;boundary (EachMode fixup) -->
<g id="edge10" class="edge">
<title>[root] root&#45;&gt;[root] meta.count&#45;boundary (EachMode fixup)</title>
<path fill="none" stroke="#000000" d="M359.6209,-222.1107C326.9177,-211.3589 278.0626,-195.297 239.0794,-182.4806"/>
<polygon fill="#000000" stroke="#000000" points="239.9899,-179.0957 229.397,-179.2973 237.8036,-185.7455 239.9899,-179.0957"/>
</g>
<!-- [root] root&#45;&gt;[root] provider[&quot;registry.terraform.io/hashicorp/azurerm&quot;] (close) -->
<g id="edge11" class="edge">
<title>[root] root&#45;&gt;[root] provider[&quot;registry.terraform.io/hashicorp/azurerm&quot;] (close)</title>
<path fill="none" stroke="#000000" d="M431.9477,-222.1107C464.4269,-211.4326 512.8375,-195.5168 551.6868,-182.7444"/>
<polygon fill="#000000" stroke="#000000" points="552.9356,-186.0182 561.3422,-179.57 550.7493,-179.3684 552.9356,-186.0182"/>
</g>
</g>
</svg>
